<?xml version="1.0" standalone="no"?>
<!DOCTYPE svg PUBLIC "-//W3C//DTD SVG 20010904//EN"
 "http://www.w3.org/TR/2001/REC-SVG-20010904/DTD/svg10.dtd">
<svg version="1.0" xmlns="http://www.w3.org/2000/svg"
 width="300.000000pt" height="533.000000pt" viewBox="0 0 300.000000 533.000000"
 preserveAspectRatio="xMidYMid meet">
<metadata>
Created by potrace 1.10, written by Peter Selinger 2001-2011
</metadata>
<g transform="translate(0.000000,533.000000) scale(0.100000,-0.100000)"
fill="#000000" stroke="none">
<path d="M31 5112 c2 -15 0 -32 -4 -38 -4 -7 0 -17 8 -24 13 -11 15 -5 15 39
0 30 -4 51 -11 51 -6 0 -9 -12 -8 -28z"/>
<path d="M10 4890 c-7 -17 -9 -34 -6 -38 10 -9 36 27 36 50 0 28 -16 21 -30
-12z"/>
<path d="M16 4554 c-22 -15 -21 -19 12 -28 18 -6 22 -3 22 13 0 27 -11 32 -34
15z"/>
<path d="M0 4470 c0 -13 8 -29 18 -36 16 -13 16 -15 -2 -29 -15 -11 -17 -18
-9 -26 7 -7 18 -9 26 -6 19 7 10 64 -14 96 l-19 24 0 -23z"/>
<path d="M1638 3625 c-2 -1 -30 -5 -62 -9 -106 -11 -201 -78 -247 -174 -31
-65 -68 -179 -75 -231 -4 -28 -9 -51 -12 -51 -4 0 -16 12 -28 28 -21 25 -24
26 -40 10 -15 -15 -15 -25 -5 -105 6 -48 12 -99 12 -113 1 -32 16 -50 41 -50
14 0 18 5 14 16 -3 9 -6 29 -6 46 0 26 -2 29 -15 18 -12 -10 -15 -10 -15 4 0
9 7 16 15 16 16 0 20 16 6 24 -5 3 -7 15 -4 26 3 12 -1 22 -11 26 -15 6 -22
35 -10 46 3 4 17 0 31 -7 34 -18 40 -13 53 38 6 23 16 53 22 67 6 14 12 30 12
35 5 45 48 135 66 136 10 0 8 3 -5 8 -18 7 -18 9 7 32 46 42 57 49 82 51 13 1
22 6 20 10 -3 4 -11 5 -19 1 -8 -3 -15 -1 -15 4 0 11 66 33 99 33 12 0 35 7
51 15 20 10 31 12 36 4 3 -6 20 -9 37 -6 33 4 90 -15 115 -39 8 -8 22 -12 32
-9 12 4 25 -3 36 -17 11 -13 27 -22 36 -20 9 2 22 -6 29 -19 6 -12 24 -33 40
-47 16 -13 29 -30 29 -38 0 -8 6 -11 17 -7 11 4 14 3 9 -6 -5 -7 -1 -20 9 -31
9 -10 14 -24 10 -30 -4 -6 -2 -16 4 -23 5 -7 12 -43 15 -80 4 -60 2 -70 -18
-92 -13 -14 -38 -65 -55 -115 -20 -56 -38 -90 -47 -90 -8 0 -14 -4 -14 -10 0
-5 5 -10 11 -10 7 0 5 -9 -4 -22 -9 -13 -26 -42 -39 -66 -27 -53 -46 -71 -57
-54 -4 7 -14 10 -22 8 -8 -3 -27 6 -44 19 l-30 25 41 0 c22 0 45 -5 51 -11 8
-8 13 -7 18 1 16 26 -13 34 -77 22 -35 -6 -80 -14 -101 -18 -41 -7 -54 -18
-35 -30 6 -4 14 -2 16 4 5 17 33 15 47 -4 10 -14 14 -15 34 -3 19 12 24 12 35
-3 7 -10 18 -18 25 -18 16 0 14 -6 -19 -52 -24 -32 -28 -44 -18 -55 9 -12 15
-8 31 19 11 18 26 43 34 55 7 13 19 20 27 17 8 -3 20 2 27 11 8 10 47 51 86
92 40 42 70 80 66 86 -4 6 -11 4 -18 -6 -7 -10 -15 -17 -19 -17 -9 0 -7 45 3
56 5 5 25 38 44 74 98 188 69 362 -80 479 -29 23 -58 41 -65 41 -7 0 -26 9
-43 20 -16 11 -38 20 -47 20 -10 0 -18 5 -18 10 0 6 -11 10 -24 10 -14 0 -28
5 -31 10 -4 6 -10 8 -14 5 -5 -2 -22 0 -39 4 -17 5 -32 8 -34 6z"/>
<path d="M1260 3098 c0 -15 -3 -33 -6 -42 -3 -9 -2 -16 4 -16 14 0 24 62 12
74 -7 7 -10 1 -10 -16z"/>
<path d="M1340 2973 c0 -4 23 -21 50 -36 28 -16 50 -30 50 -32 0 -3 -20 -2
-45 2 -45 6 -53 0 -35 -27 8 -13 10 -12 10 3 0 21 16 22 36 2 11 -11 12 -15 3
-15 -10 0 -10 -3 -1 -12 10 -10 17 -10 32 0 28 17 30 16 30 -19 0 -16 -4 -28
-8 -25 -5 3 -9 -1 -9 -8 0 -11 4 -12 18 -3 10 6 16 14 13 18 -2 4 3 9 12 11
13 2 10 10 -14 41 -38 47 -142 120 -142 100z"/>
<path d="M1236 2883 c-13 -68 -15 -110 -8 -141 14 -63 27 -28 27 70 0 96 -8
126 -19 71z"/>
<path d="M1396 2704 c-9 -8 -16 -17 -16 -19 0 -8 41 9 51 21 17 20 -15 19 -35
-2z"/>
<path d="M1170 2683 c-69 -11 -128 -35 -152 -60 -22 -24 -29 -49 -48 -158 -12
-71 -23 -143 -24 -158 -4 -47 12 -40 24 10 15 63 39 180 47 221 3 17 9 32 14
32 5 0 9 6 9 14 0 15 47 40 115 60 51 16 68 6 58 -35 -6 -24 -6 -24 15 -5 23
20 29 46 12 46 -5 0 -10 9 -10 20 0 20 -7 22 -60 13z"/>
<path d="M1592 2648 c2 -13 11 -24 21 -26 15 -3 16 0 6 22 -15 32 -32 34 -27
4z"/>
<path d="M1410 2633 c0 -22 36 -73 51 -73 16 0 10 16 -21 55 -24 30 -30 34
-30 18z"/>
<path d="M1350 2599 c0 -17 69 -79 88 -79 11 0 5 8 -15 21 -18 12 -33 26 -33
33 0 6 -9 17 -20 24 -14 9 -20 9 -20 1z"/>
<path d="M1756 2585 c-9 -13 -43 -37 -75 -52 -47 -22 -60 -33 -63 -54 -4 -24
1 -22 92 38 52 34 101 63 108 63 19 0 53 -38 39 -44 -7 -2 -1 -5 12 -5 70 -2
151 -76 151 -137 0 -16 7 -42 15 -58 13 -24 13 -27 1 -23 -19 7 -25 -20 -13
-53 5 -14 6 -54 3 -90 -5 -54 -3 -71 14 -102 25 -48 7 -52 -42 -10 -46 39 -89
65 -96 58 -3 -4 19 -31 49 -62 45 -46 58 -54 80 -49 20 5 35 -1 59 -22 l33
-28 -6 34 c-4 18 -23 50 -42 69 -39 41 -42 58 -19 126 12 35 15 64 9 114 -3
37 -7 86 -8 110 -1 30 -8 47 -20 53 -9 6 -24 25 -31 44 -16 38 -60 65 -106 65
-18 0 -37 8 -47 20 -25 29 -76 27 -97 -5z"/>
<path d="M1194 2566 c-7 -17 8 -34 48 -55 16 -8 26 -17 23 -19 -6 -6 65 -51
80 -51 6 -1 0 7 -11 17 -12 9 -27 27 -33 40 -7 12 -20 22 -30 22 -11 0 -31 14
-45 31 -21 24 -27 27 -32 15z"/>
<path d="M1528 2546 c-15 -8 -35 -16 -45 -19 -13 -3 -10 -5 7 -6 14 0 36 8 50
19 30 23 25 25 -12 6z"/>
<path d="M1591 2314 c-12 -48 -20 -89 -17 -91 12 -13 44 76 44 125 0 28 -1 52
-3 52 -1 0 -12 -39 -24 -86z"/>
<path d="M1652 2373 c-7 -12 -12 -30 -12 -40 0 -15 2 -14 16 5 8 12 14 30 12
40 -3 15 -5 14 -16 -5z"/>
<path d="M1655 2240 l-30 -21 30 7 c37 8 45 13 45 25 0 14 -12 11 -45 -11z"/>
<path d="M1522 2160 c-4 -12 -19 -27 -32 -33 -14 -7 -26 -23 -28 -35 -4 -29
-47 -48 -71 -30 -9 6 -35 32 -58 56 -24 24 -43 39 -43 33 0 -5 11 -21 25 -35
14 -14 25 -30 25 -35 0 -6 11 -18 25 -27 48 -32 15 -81 -36 -53 -19 10 -21 9
-16 -6 4 -9 7 -18 7 -20 0 -2 13 0 29 5 26 7 30 6 33 -13 3 -20 5 -19 21 11
10 18 31 41 47 50 27 17 100 113 100 132 0 20 -21 20 -28 0z"/>
<path d="M920 2109 c2 -24 -1 -52 -5 -62 -8 -18 0 -35 11 -24 6 6 16 63 18
101 1 10 -5 21 -12 24 -10 3 -13 -7 -12 -39z"/>
<path d="M1250 2092 c0 -13 49 -56 56 -49 4 3 -4 18 -17 32 -24 25 -39 32 -39
17z"/>
<path d="M1588 2030 c13 -12 28 -34 33 -49 20 -57 166 -106 199 -66 10 12 5
14 -32 14 -66 -1 -136 31 -167 76 -14 21 -33 40 -41 43 -9 3 -5 -5 8 -18z"/>
<path d="M960 2021 c0 -11 -13 -45 -30 -78 l-29 -58 4 45 4 45 -13 -45 c-9
-31 -10 -49 -3 -58 8 -10 7 -16 -2 -21 -7 -5 -19 -39 -26 -77 -36 -186 -57
-253 -86 -280 -26 -23 -49 -67 -49 -91 1 -13 6 -9 17 12 9 17 40 54 70 83 49
49 93 107 93 124 0 11 -31 2 -40 -12 -7 -11 -7 21 -1 83 1 5 5 6 10 3 4 -3 6
7 4 22 -4 21 -2 24 6 12 9 -12 11 -3 11 35 1 83 4 109 17 120 14 11 73 129 73
145 0 6 -7 10 -15 10 -8 0 -15 -9 -15 -19z"/>
<path d="M1234 1996 c9 -38 80 -107 106 -103 20 3 39 22 40 40 0 4 -18 7 -40
7 -35 0 -43 4 -66 40 -30 45 -49 53 -40 16z"/>
<path d="M1130 2000 c0 -6 -11 -15 -25 -20 -16 -6 -23 -14 -19 -25 8 -19 20
-19 28 1 3 8 10 12 16 9 6 -4 10 5 10 19 0 14 -2 26 -5 26 -3 0 -5 -5 -5 -10z"/>
<path d="M1080 1887 c0 -20 17 -40 29 -33 6 4 20 -5 33 -19 33 -38 88 -31 72
9 -4 12 -10 13 -18 7 -9 -7 -23 -3 -47 13 -46 30 -69 38 -69 23z"/>
<path d="M1000 1880 c0 -5 -8 -10 -19 -10 -38 0 -41 -23 -6 -63 l34 -39 -2 61
c-1 34 -3 61 -4 61 -2 0 -3 -4 -3 -10z"/>
<path d="M1602 1870 c-7 -11 -16 -19 -20 -17 -9 2 -77 -72 -71 -77 2 -2 24 6
48 18 35 16 47 28 53 55 11 40 7 47 -10 21z"/>
<path d="M2345 1851 c-6 -6 -31 -11 -55 -12 -42 -1 -89 -11 -135 -30 -11 -4
-30 -11 -43 -14 -22 -6 -21 -9 29 -66 54 -63 79 -74 36 -17 -13 18 -28 43 -31
54 -8 27 13 34 115 34 55 0 80 4 89 15 15 18 10 51 -5 36z"/>
<path d="M1320 1814 c-83 -52 -195 -96 -225 -88 -18 4 -27 2 -31 -11 -4 -9
-18 -21 -32 -26 -14 -5 -22 -12 -19 -15 3 -3 14 -1 25 5 12 6 41 11 66 11 35
0 48 -5 60 -22 17 -24 22 -13 7 12 -12 17 26 42 91 61 24 7 58 21 76 31 18 10
42 18 53 18 19 0 19 2 4 30 -9 17 -17 30 -18 29 -1 0 -27 -16 -57 -35z"/>
<path d="M1780 1760 c0 -28 4 -38 13 -34 8 3 11 17 9 39 -6 48 -22 44 -22 -5z"/>
<path d="M1631 1780 c-18 -11 -2 -38 26 -45 14 -3 27 -4 30 -2 8 9 -45 54 -56
47z"/>
<path d="M2043 1777 c-18 -6 -33 -14 -33 -18 0 -3 -11 -18 -25 -33 -29 -32
-30 -36 -10 -62 14 -18 14 -18 15 11 0 38 8 48 46 68 17 9 34 23 37 32 4 8 5
14 4 14 -1 -1 -17 -7 -34 -12z"/>
<path d="M1686 1625 c8 -19 107 -64 148 -67 50 -3 114 -37 136 -73 11 -18 37
-47 57 -64 41 -35 48 -33 -92 -31 -101 0 -148 -14 -74 -24 64 -8 164 -15 242
-15 48 -1 67 -5 67 -14 0 -7 16 -35 35 -62 59 -82 115 -175 162 -265 42 -81
107 -155 125 -144 5 3 6 11 2 17 -3 7 1 4 10 -7 8 -10 20 -15 26 -11 8 5 1 15
-21 29 -49 31 -73 60 -134 166 -107 187 -188 303 -222 319 -14 7 -26 23 -30
41 -7 36 -23 50 -23 21 0 -48 -54 -31 -95 30 -32 47 -82 98 -99 101 -6 0 -15
2 -21 3 -5 2 -26 3 -46 4 -22 1 -53 13 -80 31 -48 32 -82 40 -73 15z"/>
<path d="M2006 1633 c-12 -12 -6 -28 19 -56 36 -38 46 -34 24 12 -20 42 -32
55 -43 44z"/>
<path d="M1322 1543 c-16 -16 -34 -23 -62 -23 -21 0 -42 -5 -45 -11 -4 -6 -25
-9 -48 -7 -53 3 -62 -19 -10 -27 21 -4 55 -11 76 -15 38 -8 46 -3 26 17 -15
15 12 29 83 45 34 8 45 13 31 16 -12 2 -23 9 -25 16 -2 9 -11 5 -26 -11z"/>
<path d="M1024 1534 c3 -9 6 -31 6 -50 0 -19 4 -34 10 -34 16 0 23 50 11 76
-12 26 -37 34 -27 8z"/>
<path d="M2142 1499 c18 -16 36 -29 40 -29 11 0 102 -66 139 -101 22 -21 34
-26 39 -18 5 7 22 -9 46 -44 41 -58 66 -75 123 -81 37 -3 71 18 71 44 0 10 -3
11 -8 4 -26 -39 -136 -8 -169 47 -10 16 -23 29 -29 29 -7 0 -31 18 -53 40 -22
22 -44 41 -48 41 -11 2 -82 50 -107 74 -12 11 -34 21 -49 21 l-27 2 32 -29z"/>
<path d="M1066 1438 c-6 -21 -16 -29 -44 -34 -20 -4 -58 -23 -84 -43 -44 -32
-46 -36 -27 -43 16 -6 26 -1 45 21 28 34 76 53 120 48 29 -4 98 -43 141 -80
20 -18 50 -16 38 3 -3 5 1 15 9 23 8 8 12 17 9 21 -3 3 -13 -3 -20 -14 l-14
-20 -26 20 c-14 11 -29 20 -34 20 -21 0 -98 63 -102 83 -3 21 -4 20 -11 -5z"/>
<path d="M1820 1360 c-8 -28 -9 -90 -1 -90 5 0 15 -24 21 -52 7 -29 17 -61 22
-70 11 -22 -1 -23 -30 -2 -12 8 -22 11 -22 5 0 -5 27 -31 60 -57 51 -40 59
-50 54 -71 -4 -16 0 -31 12 -44 15 -17 16 -22 4 -29 -8 -5 -18 -6 -22 -4 -4 3
-8 -4 -8 -15 0 -12 4 -21 10 -21 5 0 12 -11 16 -24 7 -29 32 -42 40 -21 4 8 4
33 2 55 -3 31 0 40 12 40 9 0 21 -5 28 -12 9 -9 12 -9 12 1 0 7 -18 20 -40 28
-37 15 -40 19 -40 56 0 25 -14 69 -40 123 -22 47 -40 90 -40 97 0 13 -48 115
-50 107z"/>
<path d="M774 1295 c-1 -50 6 -57 21 -22 6 14 19 22 34 22 34 0 37 22 4 27
-15 3 -35 8 -44 12 -12 5 -15 -2 -15 -39z"/>
<path d="M950 1290 c0 -5 6 -13 14 -17 7 -4 19 -19 25 -31 14 -26 75 -57 92
-46 6 3 1 13 -13 22 -33 23 -47 34 -74 60 -26 23 -44 28 -44 12z"/>
<path d="M740 1222 c0 -5 -21 -30 -46 -56 -38 -38 -44 -49 -34 -59 10 -9 14
-9 18 3 3 8 17 27 31 41 25 26 51 63 51 74 0 3 -4 5 -10 5 -5 0 -10 -4 -10 -8z"/>
<path d="M777 1068 c-2 -7 5 -31 16 -53 13 -24 22 -34 24 -25 4 20 -34 94 -40
78z"/>
<path d="M2481 1025 c1 -48 1 -49 10 -17 6 21 6 39 0 50 -8 13 -10 5 -10 -33z"/>
<path d="M731 980 c0 -19 4 -42 9 -50 8 -12 10 -10 9 10 -1 14 -5 36 -9 50 -7
23 -8 22 -9 -10z"/>
<path d="M498 943 c-25 -6 -22 -20 9 -46 51 -42 68 -65 118 -157 35 -65 58
-96 79 -107 17 -9 36 -21 43 -28 26 -27 79 -53 115 -58 45 -6 42 8 -4 17 -49
10 -155 84 -163 114 -4 15 -15 32 -26 40 -13 9 -18 20 -14 33 4 10 2 19 -4 19
-6 0 -7 7 -4 17 4 11 3 14 -5 9 -8 -4 -16 3 -22 19 -5 14 -17 28 -25 31 -8 4
-15 11 -15 18 0 6 -12 22 -25 35 -20 18 -23 27 -14 37 9 11 8 14 -7 13 -11 -1
-27 -3 -36 -6z"/>
<path d="M1765 925 c-27 -13 -61 -33 -75 -45 l-25 -21 39 16 c22 8 44 19 50
24 6 4 33 14 60 21 38 10 51 11 54 2 6 -19 22 -14 22 8 0 29 -61 26 -125 -5z"/>
<path d="M751 893 c-2 -46 69 -168 83 -144 4 6 3 11 -2 11 -13 0 -52 66 -68
115 -8 25 -13 32 -13 18z"/>
<path d="M1973 812 c19 -11 27 -25 27 -44 0 -29 -15 -46 -23 -26 -3 8 -6 6 -6
-4 -1 -10 4 -18 9 -18 6 0 10 -6 10 -13 0 -8 11 -24 25 -37 14 -13 24 -28 22
-34 -2 -5 -30 -11 -63 -12 -51 -3 -99 -9 -99 -14 0 -1 -11 -3 -25 -5 -29 -5
-49 -10 -70 -17 -66 -23 -90 -28 -104 -22 -10 4 -18 0 -22 -10 -3 -9 -10 -16
-16 -16 -5 0 -6 6 -2 13 5 8 3 8 -9 -2 -9 -7 -26 -11 -37 -8 -11 3 -20 2 -20
-3 0 -17 -177 -40 -190 -25 -7 9 -28 6 -77 -11 -38 -12 -71 -20 -75 -17 -5 2
-8 -1 -8 -8 0 -8 14 -10 48 -5 26 4 99 11 162 15 128 10 284 39 375 72 40 14
95 23 163 26 96 5 106 4 134 -17 41 -30 47 -18 12 26 -16 20 -39 51 -52 70
-12 19 -30 34 -38 34 -12 0 -15 6 -10 20 3 11 9 28 12 38 7 24 -32 72 -59 72
-20 -1 -20 -2 6 -18z"/>
<path d="M48 762 c-32 -10 -48 -21 -48 -32 0 -14 9 -12 60 12 85 41 79 51 -12
20z"/>
<path d="M2053 768 c-2 -5 11 -8 29 -8 45 0 51 -6 88 -75 47 -86 114 -175 149
-196 20 -12 34 -32 42 -59 8 -26 43 -76 100 -141 61 -70 103 -129 136 -195 26
-52 54 -94 61 -94 17 0 15 18 -3 37 -8 8 -13 19 -10 24 4 5 2 9 -3 9 -6 0 -19
16 -31 35 l-20 35 23 -16 c16 -10 26 -12 31 -5 3 6 2 11 -4 11 -5 0 -35 33
-65 73 -30 40 -66 79 -81 87 -14 7 -24 18 -22 23 1 5 -17 30 -41 56 -35 36
-43 50 -38 72 4 20 0 29 -17 38 -62 32 -81 48 -82 71 -1 14 3 29 9 33 6 5 1 7
-13 4 -17 -4 -25 -1 -28 14 -3 10 -9 19 -14 19 -5 0 -9 7 -9 15 0 8 -6 15 -12
16 -7 0 -31 28 -53 62 -38 58 -42 62 -78 62 -22 0 -41 -3 -44 -7z"/>
<path d="M2364 771 c-2 -2 2 -11 10 -20 7 -9 17 -26 20 -38 9 -27 -21 -36 -46
-15 -10 8 -18 10 -18 5 0 -6 -11 -14 -25 -17 -14 -4 -25 -11 -25 -16 0 -6 11
-8 25 -4 15 4 32 1 40 -6 34 -29 105 37 105 97 0 14 -8 18 -41 18 -22 0 -43
-2 -45 -4z"/>
<path d="M1550 708 c0 -20 32 -48 56 -48 16 0 15 2 -6 16 -14 10 -31 24 -37
32 -12 14 -13 14 -13 0z"/>
<path d="M2376 599 c10 -12 32 -28 49 -36 16 -9 32 -19 35 -23 3 -4 19 -13 35
-21 19 -9 29 -21 27 -32 -2 -9 2 -17 8 -17 5 0 10 -6 10 -14 0 -7 11 -21 25
-30 24 -16 24 -16 16 6 -4 13 -6 28 -4 34 6 17 -173 154 -203 154 -16 0 -16
-2 2 -21z"/>
<path d="M1175 572 c-99 -6 -63 -19 57 -20 68 -1 119 1 113 3 -23 10 -123 20
-170 17z"/>
<path d="M2599 443 c21 -35 37 -50 92 -85 58 -37 79 -58 59 -58 -8 0 -8 -6 0
-20 6 -11 19 -20 28 -20 27 0 72 -24 68 -35 -2 -5 -9 -9 -15 -8 -6 2 -11 -2
-11 -7 0 -6 10 -10 23 -10 29 0 65 -32 73 -66 8 -31 30 -25 27 7 -3 25 -52 74
-231 229 -101 88 -134 109 -113 73z"/>
<path d="M177 134 c-3 -5 20 -10 51 -12 32 -1 110 -6 175 -11 65 -4 135 -4
155 0 l37 7 -35 2 c-19 1 -46 3 -60 5 -71 10 -318 17 -323 9z"/>
<path d="M818 85 c-2 -1 -55 -5 -120 -9 -131 -7 -318 -31 -363 -48 -16 -6
-100 -14 -185 -18 l-155 -7 154 -1 c85 -1 193 3 239 10 62 9 88 9 101 1 15
-10 18 -9 17 5 -1 11 8 16 29 17 17 1 50 5 75 9 25 5 66 8 93 8 26 0 47 4 47
8 0 7 53 6 165 -5 84 -8 100 -11 116 -20 7 -5 23 -11 34 -12 10 -2 22 -8 26
-14 3 -6 24 -9 45 -7 l39 3 -70 27 c-38 15 -92 32 -120 38 -48 10 -161 20
-167 15z"/>
<path d="M5 60 c-12 -19 26 -23 156 -17 191 8 195 24 6 26 -99 1 -158 -2 -162
-9z"/>
</g>
</svg>
