<svg id="visual" viewBox="0 0 900 450" width="900" height="450" xmlns="http://www.w3.org/2000/svg" xmlns:xlink="http://www.w3.org/1999/xlink" version="1.1"><path d="M0 168L30 167.2C60 166.3 120 164.7 180 166.2C240 167.7 300 172.3 360 174.7C420 177 480 177 540 172.5C600 168 660 159 720 156C780 153 840 156 870 157.5L900 159L900 0L870 0C840 0 780 0 720 0C660 0 600 0 540 0C480 0 420 0 360 0C300 0 240 0 180 0C120 0 60 0 30 0L0 0Z" fill="#ffffff"></path><path d="M0 343L30 344.5C60 346 120 349 180 347.5C240 346 300 340 360 340C420 340 480 346 540 346.8C600 347.7 660 343.3 720 341.2C780 339 840 339 870 339L900 339L900 157L870 155.5C840 154 780 151 720 154C660 157 600 166 540 170.5C480 175 420 175 360 172.7C300 170.3 240 165.7 180 164.2C120 162.7 60 164.3 30 165.2L0 166Z" fill="#64b5f6"></path><path d="M0 451L30 451C60 451 120 451 180 451C240 451 300 451 360 451C420 451 480 451 540 451C600 451 660 451 720 451C780 451 840 451 870 451L900 451L900 337L870 337C840 337 780 337 720 339.2C660 341.3 600 345.7 540 344.8C480 344 420 338 360 338C300 338 240 344 180 345.5C120 347 60 344 30 342.5L0 341Z" fill="#ffffff"></path></svg>