<svg id="visual" viewBox="0 0 900 450" width="900" height="450" xmlns="http://www.w3.org/2000/svg" xmlns:xlink="http://www.w3.org/1999/xlink" version="1.1"><path d="M0 118L11.5 124C23 130 46 142 69 146.5C92 151 115 148 138.2 144.3C161.3 140.7 184.7 136.3 207.8 132.8C231 129.3 254 126.7 277 130.5C300 134.3 323 144.7 346 148.3C369 152 392 149 415.2 144.8C438.3 140.7 461.7 135.3 484.8 131.3C508 127.3 531 124.7 554 125.3C577 126 600 130 623 133C646 136 669 138 692.2 135C715.3 132 738.7 124 761.8 122.3C785 120.7 808 125.3 831 127.7C854 130 877 130 888.5 130L900 130L900 0L888.5 0C877 0 854 0 831 0C808 0 785 0 761.8 0C738.7 0 715.3 0 692.2 0C669 0 646 0 623 0C600 0 577 0 554 0C531 0 508 0 484.8 0C461.7 0 438.3 0 415.2 0C392 0 369 0 346 0C323 0 300 0 277 0C254 0 231 0 207.8 0C184.7 0 161.3 0 138.2 0C115 0 92 0 69 0C46 0 23 0 11.5 0L0 0Z" fill="#64b5f6" stroke-linecap="round" stroke-linejoin="miter"></path></svg>