<svg id="visual" viewBox="0 0 900 450" width="900" height="450" xmlns="http://www.w3.org/2000/svg" xmlns:xlink="http://www.w3.org/1999/xlink" version="1.1"><path d="M0 330L11.5 324C23 318 46 306 69 301.5C92 297 115 300 138.2 303.7C161.3 307.3 184.7 311.7 207.8 315.2C231 318.7 254 321.3 277 317.5C300 313.7 323 303.3 346 299.7C369 296 392 299 415.2 303.2C438.3 307.3 461.7 312.7 484.8 316.7C508 320.7 531 323.3 554 322.7C577 322 600 318 623 315C646 312 669 310 692.2 313C715.3 316 738.7 324 761.8 325.7C785 327.3 808 322.7 831 320.3C854 318 877 318 888.5 318L900 318L900 451L888.5 451C877 451 854 451 831 451C808 451 785 451 761.8 451C738.7 451 715.3 451 692.2 451C669 451 646 451 623 451C600 451 577 451 554 451C531 451 508 451 484.8 451C461.7 451 438.3 451 415.2 451C392 451 369 451 346 451C323 451 300 451 277 451C254 451 231 451 207.8 451C184.7 451 161.3 451 138.2 451C115 451 92 451 69 451C46 451 23 451 11.5 451L0 451Z" fill="#64b5f6" stroke-linecap="round" stroke-linejoin="miter"></path></svg>